<?xml version="1.0" encoding="UTF-8" standalone="no"?><!DOCTYPE svg PUBLIC "-//W3C//DTD SVG 1.1//EN" "http://www.w3.org/Graphics/SVG/1.1/DTD/svg11.dtd"><svg width="100%" height="100%" viewBox="0 0 188 62" version="1.1" xmlns="http://www.w3.org/2000/svg" xmlns:xlink="http://www.w3.org/1999/xlink" xml:space="preserve" xmlns:serif="http://www.serif.com/" style="fill-rule:evenodd;clip-rule:evenodd;stroke-linejoin:round;stroke-miterlimit:1.41421;"><g><rect x="181.313" y="47.8" width="6.552" height="6.657" style="fill:#64c6c1;"/><path d="M27.331,7.596l0,6.704l-20.117,0l0,-6.704l20.117,0Zm-26.823,26.82l33.529,0l0,-6.706l-26.823,0l0,-6.707l26.823,0l0,-20.114l-33.529,0l0,33.527Z" style="fill:#fff;fill-rule:nonzero;"/><path d="M67.472,7.594l0,20.095l6.707,0l0,-26.801l-6.707,0l0,6.706Z" style="fill:#fff;fill-rule:nonzero;"/><path d="M47.356,0.888l-6.705,0l0,33.528l26.8,0l0,-6.705l-20.095,0l0,-26.823Z" style="fill:#fff;fill-rule:nonzero;"/><path d="M120.924,0.888l0,33.528l6.705,0l0,-26.822l20.116,0l0,26.822l6.707,0l0,-33.528l-33.528,0Z" style="fill:#fff;fill-rule:nonzero;"/><path d="M87.606,27.709l0,-6.704l20.117,0l0,6.704l-20.117,0Zm-6.707,-20.115l26.824,0l0,6.707l-26.824,0l0,20.115l33.529,0l0,-33.527l-33.529,0l0,6.705Z" style="fill:#fff;fill-rule:nonzero;"/><rect x="80.851" y="47.799" width="66.903" height="6.658" style="fill:#64c6c1;"/><rect x="147.751" y="54.455" width="26.962" height="6.658" style="fill:#64c6c1;"/><path d="M6.656,54.449l-1.815,0l0,-3.886c0,-0.481 -0.086,-0.84 -0.256,-1.08c-0.17,-0.24 -0.442,-0.361 -0.815,-0.361c-0.508,0 -0.875,0.17 -1.101,0.509c-0.226,0.339 -0.339,0.902 -0.339,1.688l0,3.13l-1.815,0l0,-6.654l1.386,0l0.244,0.852l0.101,0c0.203,-0.321 0.481,-0.565 0.837,-0.73c0.355,-0.164 0.758,-0.247 1.211,-0.247c0.773,0 1.36,0.21 1.761,0.628c0.401,0.419 0.601,1.023 0.601,1.813l0,4.338Z" style="fill:#fff;fill-rule:nonzero;"/><path d="M15.302,48.962c-0.385,0 -0.687,0.122 -0.904,0.366c-0.219,0.244 -0.344,0.59 -0.375,1.039l2.546,0c-0.007,-0.449 -0.125,-0.795 -0.351,-1.039c-0.226,-0.244 -0.531,-0.366 -0.916,-0.366Zm0.256,5.606c-1.072,0 -1.909,-0.296 -2.512,-0.887c-0.603,-0.591 -0.904,-1.429 -0.904,-2.512c0,-1.114 0.278,-1.976 0.836,-2.585c0.557,-0.609 1.328,-0.914 2.312,-0.914c0.94,0 1.672,0.268 2.196,0.804c0.523,0.535 0.786,1.275 0.786,2.22l0,0.881l-4.291,0c0.02,0.515 0.172,0.918 0.458,1.208c0.286,0.289 0.686,0.434 1.202,0.434c0.401,0 0.779,-0.042 1.137,-0.125c0.357,-0.084 0.73,-0.217 1.119,-0.399l0,1.405c-0.318,0.158 -0.657,0.276 -1.018,0.354c-0.361,0.077 -0.801,0.116 -1.321,0.116Z" style="fill:#fff;fill-rule:nonzero;"/><path d="M26.572,53.121c0.317,0 0.698,-0.069 1.143,-0.208l0,1.351c-0.453,0.202 -1.008,0.304 -1.667,0.304c-0.726,0 -1.254,-0.184 -1.586,-0.551c-0.331,-0.366 -0.497,-0.917 -0.497,-1.651l0,-3.207l-0.868,0l0,-0.768l0.999,-0.607l0.524,-1.405l1.161,0l0,1.416l1.862,0l0,1.364l-1.862,0l0,3.207c0,0.257 0.072,0.448 0.217,0.571c0.145,0.123 0.336,0.184 0.574,0.184Z" style="fill:#fff;fill-rule:nonzero;"/><path d="M38.55,54.449l-0.511,-2.328l-0.691,-2.939l-0.041,0l-1.214,5.267l-1.952,0l-1.893,-6.654l1.81,0l0.767,2.947c0.123,0.527 0.248,1.254 0.375,2.183l0.036,0c0.016,-0.302 0.085,-0.779 0.208,-1.434l0.095,-0.506l0.821,-3.19l2,0l0.78,3.19c0.015,0.088 0.04,0.217 0.074,0.387c0.034,0.17 0.066,0.352 0.098,0.544c0.032,0.193 0.061,0.381 0.086,0.566c0.026,0.184 0.041,0.332 0.045,0.443l0.036,0c0.036,-0.285 0.099,-0.678 0.19,-1.175c0.091,-0.498 0.157,-0.835 0.197,-1.008l0.797,-2.947l1.779,0l-1.916,6.654l-1.976,0Z" style="fill:#fff;fill-rule:nonzero;"/><path d="M48.981,51.11c0,0.659 0.109,1.157 0.325,1.494c0.216,0.337 0.568,0.506 1.056,0.506c0.484,0 0.832,-0.168 1.045,-0.503c0.212,-0.335 0.318,-0.834 0.318,-1.497c0,-0.658 -0.107,-1.153 -0.321,-1.482c-0.214,-0.329 -0.566,-0.494 -1.054,-0.494c-0.484,0 -0.833,0.164 -1.047,0.491c-0.214,0.328 -0.322,0.823 -0.322,1.485Zm4.601,0c0,1.084 -0.286,1.93 -0.857,2.542c-0.572,0.61 -1.367,0.916 -2.387,0.916c-0.638,0 -1.202,-0.14 -1.69,-0.42c-0.488,-0.279 -0.863,-0.681 -1.125,-1.205c-0.261,-0.524 -0.392,-1.135 -0.392,-1.833c0,-1.087 0.284,-1.932 0.851,-2.535c0.567,-0.603 1.365,-0.905 2.392,-0.905c0.639,0 1.202,0.139 1.69,0.417c0.488,0.278 0.863,0.676 1.125,1.197c0.262,0.519 0.393,1.128 0.393,1.826Z" style="fill:#fff;fill-rule:nonzero;"/><path d="M62.816,47.67c0.247,0 0.451,0.019 0.614,0.054l-0.137,1.702c-0.147,-0.04 -0.326,-0.059 -0.536,-0.059c-0.579,0 -1.03,0.148 -1.354,0.446c-0.323,0.298 -0.484,0.714 -0.484,1.25l0,3.386l-1.816,0l0,-6.654l1.375,0l0.268,1.119l0.089,0c0.207,-0.373 0.485,-0.673 0.836,-0.901c0.351,-0.228 0.733,-0.343 1.145,-0.343Z" style="fill:#fff;fill-rule:nonzero;"/><path d="M70.404,50.83l0.791,-1.011l1.863,-2.024l2.047,0l-2.642,2.887l2.803,3.767l-2.095,0l-1.916,-2.696l-0.78,0.624l0,2.072l-1.815,0l0,-9.26l1.815,0l0,4.13l-0.095,1.511l0.024,0Z" style="fill:#fff;fill-rule:nonzero;"/></g></svg>