<?xml version="1.0" encoding="UTF-8" standalone="no"?>
<!-- Generator: Adobe Illustrator 19.2.1, SVG Export Plug-In . SVG Version: 6.00 Build 0)  -->

<svg
   xmlns:dc="http://purl.org/dc/elements/1.1/"
   xmlns:cc="http://creativecommons.org/ns#"
   xmlns:rdf="http://www.w3.org/1999/02/22-rdf-syntax-ns#"
   xmlns:svg="http://www.w3.org/2000/svg"
   xmlns="http://www.w3.org/2000/svg"
   xmlns:sodipodi="http://sodipodi.sourceforge.net/DTD/sodipodi-0.dtd"
   xmlns:inkscape="http://www.inkscape.org/namespaces/inkscape"
   version="1.1"
   id="Ebene_1"
   x="0px"
   y="0px"
   viewBox="0 0 242 65.3"
   style="enable-background:new 0 0 242 65.3;"
   xml:space="preserve"
   inkscape:version="0.91 r13725"
   sodipodi:docname="contractus-logo.svg"><metadata
     id="metadata45"><rdf:RDF><cc:Work
         rdf:about=""><dc:format>image/svg+xml</dc:format><dc:type
           rdf:resource="http://purl.org/dc/dcmitype/StillImage" /></cc:Work></rdf:RDF></metadata><defs
     id="defs43" /><sodipodi:namedview
     pagecolor="#ffffff"
     bordercolor="#666666"
     borderopacity="1"
     objecttolerance="10"
     gridtolerance="10"
     guidetolerance="10"
     inkscape:pageopacity="0"
     inkscape:pageshadow="2"
     inkscape:window-width="1920"
     inkscape:window-height="1025"
     id="namedview41"
     showgrid="false"
     inkscape:zoom="3.9008264"
     inkscape:cx="136.14432"
     inkscape:cy="18.314793"
     inkscape:window-x="1920"
     inkscape:window-y="0"
     inkscape:window-maximized="1"
     inkscape:current-layer="g7" /><style
     type="text/css"
     id="style3">
	.st0{fill:#0081C7;}
	.st1{fill:#97BE0D;}
	.st2{fill:#58585A;}
	.st3{fill:#739513;}
	.st4{fill:#004F7D;}
	.st5{fill:#B1B2B4;}
</style><g
     id="g5"><g
       id="g7"><path
         class="st0"
         d="m 16.504132,46.307204 c -2.149712,0 -4.03071,-0.268714 -5.508636,-0.940498 C 9.3832119,44.69492 8.039642,43.888778 7.0991436,42.679566 6.0242877,41.470352 5.2181457,40.126782 4.6807178,38.5145 c -0.537428,-1.612284 -0.806142,-3.358926 -0.806142,-5.37428 0,-2.149712 0.268714,-4.03071 0.806142,-5.642994 0.5374279,-1.612283 1.4779263,-3.09021 2.5527822,-4.165066 1.074856,-1.209212 2.4184259,-2.015354 4.03071,-2.68714 1.612284,-0.537428 3.358924,-0.940498 5.37428,-0.940498 1.74664,0 3.224566,0.134356 4.568136,0.537428 1.34357,0.40307 2.418426,0.940498 3.493282,1.612284 0.940498,0.671784 1.74664,1.612284 2.284068,2.552782 0.537428,1.074856 1.074856,2.149712 1.209214,3.358924 l -5.37428,0.403072 C 22.550196,26.556728 21.878412,25.347516 20.803556,24.67573 19.7287,23.869588 18.250772,23.466518 16.504132,23.466518 c -2.418426,0 -4.165066,0.806142 -5.508636,2.418425 -1.2092129,1.612283 -1.8809981,3.896353 -1.8809981,6.852205 0,3.224568 0.6717852,5.508638 2.0153541,7.12092 1.34357,1.612284 3.090212,2.418426 5.508638,2.418426 0.806142,0 1.612282,-0.134356 2.418424,-0.268714 0.806142,-0.268714 1.34357,-0.537428 2.015356,-0.940498 0.537428,-0.403072 1.074856,-0.9405 1.34357,-1.612284 0.40307,-0.671784 0.671784,-1.477926 0.806142,-2.284068 l 5.239922,0.537428 c -0.134358,1.209212 -0.537428,2.284068 -1.074856,3.358924 -0.537428,1.074856 -1.34357,2.015354 -2.418426,2.68714 -0.940498,0.806142 -2.149712,1.34357 -3.627638,1.880998 -1.477928,0.40307 -3.090212,0.671784 -4.836852,0.671784"
         id="path9"
         inkscape:connector-curvature="0"
         style="fill:#0081c7" /><path
         class="st0"
         d="m 57.214298,33.005862 c 0,2.015356 -0.268714,3.761996 -0.806142,5.37428 -0.537428,1.612284 -1.34357,2.955854 -2.552783,4.165066 -1.074856,1.209214 -2.552783,2.015356 -4.165067,2.68714 -1.612284,0.671786 -3.627638,0.9405 -5.911706,0.9405 -2.149712,0 -4.03071,-0.268714 -5.642994,-0.9405 -1.612284,-0.671784 -2.955854,-1.612284 -4.165066,-2.68714 -1.074856,-1.209212 -2.015355,-2.552782 -2.552783,-4.165066 -0.537427,-1.612284 -0.806141,-3.358924 -0.806141,-5.37428 0,-1.880996 0.268714,-3.627638 0.806141,-5.239922 0.537428,-1.612284 1.34357,-2.955852 2.418425,-4.165066 1.074856,-1.209212 2.552784,-2.149712 4.165067,-2.821496 1.746641,-0.671786 3.627639,-0.9405 5.911707,-0.9405 2.418426,0 4.43378,0.268714 6.046064,0.9405 1.612284,0.671784 3.090211,1.612284 4.165067,2.68714 1.074855,1.209212 1.880997,2.552782 2.418425,4.165066 0.403072,1.74664 0.671786,3.493282 0.671786,5.374278 m -5.508637,0 c 0,-1.612282 -0.134357,-3.09021 -0.537427,-4.299422 -0.268714,-1.209214 -0.806142,-2.149712 -1.477928,-2.955854 -0.671784,-0.806142 -1.477926,-1.34357 -2.418425,-1.74664 -0.940499,-0.403072 -2.015355,-0.537428 -3.224567,-0.537428 -2.552784,0 -4.568138,0.806142 -5.911708,2.284068 -1.34357,1.477926 -2.015354,3.896352 -2.015354,7.12092 0,1.612284 0.134356,3.09021 0.537428,4.299424 0.40307,1.209212 0.940498,2.149712 1.612283,2.955852 0.671785,0.806142 1.477927,1.34357 2.418425,1.746642 0.9405,0.40307 2.015356,0.537428 3.090212,0.537428 1.209212,0 2.418425,-0.134358 3.358924,-0.537428 0.940498,-0.403072 1.880998,-0.9405 2.552782,-1.746642 0.671786,-0.80614 1.209214,-1.74664 1.612284,-2.955852 0.134358,-1.074856 0.403071,-2.552784 0.403071,-4.165068"
         id="path11"
         inkscape:connector-curvature="0"
         style="fill:#0081c7" /><path
         class="st0"
         d="m 79.920627,45.769776 0,-14.376196 c 0,-1.209214 -0.134357,-2.149712 -0.403071,-3.090212 -0.268714,-0.940498 -0.537428,-1.74664 -1.074856,-2.418425 -0.537428,-0.671785 -1.074856,-1.209213 -1.880997,-1.477927 -0.806142,-0.40307 -1.746641,-0.537428 -2.821497,-0.537428 -1.074856,0 -2.015354,0.268714 -2.955854,0.671786 -0.940498,0.40307 -1.612283,0.940498 -2.284068,1.74664 -0.671785,0.671784 -1.209213,1.612284 -1.477927,2.68714 -0.403071,1.074856 -0.537428,2.149712 -0.537428,3.358924 l 0,13.704412 -5.374279,0 0,-19.884834 c 0,-0.537427 0,-1.074854 0,-1.74664 0,-0.671784 0,-1.209212 0,-1.74664 0,-0.537428 -0.134357,-1.34357 -0.134357,-2.28407 l 4.971208,0 c 0,0.9405 0.134357,1.746642 0.134357,2.28407 0,0.537428 0,1.074856 0.134357,1.612284 0,0.537428 0,1.074856 0,1.343569 l 0.134357,0 c 1.074856,-2.015355 2.284069,-3.493281 3.896352,-4.433781 1.612284,-0.940498 3.358925,-1.34357 5.508637,-1.34357 1.746641,0 3.224567,0.268714 4.43378,0.806142 1.209217,0.537428 2.149716,1.209214 2.955857,2.149712 0.806141,0.9405 1.343564,2.015356 1.612282,3.224568 0.268717,1.209212 0.537423,2.552782 0.537423,4.03071 l 0,15.719766 -5.374276,0 z"
         id="path13"
         inkscape:connector-curvature="0"
         style="fill:#0081c7" /><path
         class="st0"
         d="m 99.402396,46.03849 c -0.9405,0.134358 -1.880999,0.134358 -2.955857,0.134358 -1.881,0 -3.358922,-0.537428 -4.299422,-1.612284 -1.074858,-1.074856 -1.477934,-2.68714 -1.477934,-4.836852 l 0,-15.719766 -3.358922,0 0,-3.62764 3.358922,0 1.74664,-6.046064 3.493292,0 0,6.046064 5.911695,0 0,3.62764 -5.911695,0 0,14.64491 c 0,1.34357 0.268706,2.284068 0.806141,2.821496 0.537423,0.537428 1.343564,0.9405 2.418422,0.9405 0.403077,0 0.940492,0 1.477922,-0.134358 0.53743,-0.134356 1.07486,-0.134356 1.47793,-0.268714 l 0,3.493282 c -0.9405,0.268714 -1.881,0.403072 -2.687134,0.537428"
         id="path15"
         inkscape:connector-curvature="0"
         style="fill:#0081c7" /><path
         class="st0"
         d="m 117.80929,24.407016 c -0.40308,0 -0.9405,-0.134356 -1.47792,-0.134356 -1.07486,0 -1.881,0.268714 -2.68714,0.671784 -0.80614,0.403072 -1.47793,1.074856 -2.01536,1.880998 -0.53742,0.806142 -0.9405,1.74664 -1.20921,2.821496 -0.26871,1.074856 -0.40307,2.418426 -0.40307,3.761996 l 0,12.360842 -5.23992,0 0,-19.213048 c 0,-0.537428 0,-1.209212 0,-1.880998 0,-0.671784 0,-1.34357 0,-1.880998 0,-0.537428 0,-1.477926 -0.13436,-2.418426 l 4.97121,0 c 0,1.074856 0.13436,1.880998 0.13436,2.552784 0,0.537428 0,1.209212 0.13435,1.74664 0,0.537428 0,1.074856 0,1.34357 l 0.13436,0 c 0.40307,-1.074856 0.67178,-1.880998 1.07486,-2.68714 0.40307,-0.806142 0.94049,-1.477926 1.47792,-2.015354 0.53743,-0.537428 1.20922,-0.9405 1.881,-1.209214 0.80614,-0.268714 1.61228,-0.40307 2.68714,-0.40307 0.40306,0 0.80614,0 1.2092,0.134356 0.40308,0 0.6718,0.134358 0.9405,0.134358 l 0,4.568138 c -0.53742,0 -0.9405,0 -1.47792,-0.134358"
         id="path17"
         inkscape:connector-curvature="0"
         style="fill:#0081c7" /><path
         class="st0"
         d="m 120.09335,38.648856 c 0,-1.477926 0.26872,-2.821496 0.9405,-3.761996 0.6718,-1.074856 1.47794,-1.880998 2.68714,-2.552782 1.07486,-0.671784 2.41844,-1.074856 3.89636,-1.477926 1.47792,-0.268714 3.09022,-0.403072 4.7025,-0.537428 l 6.44912,-0.134358 0,-1.074856 c 0,-2.149712 -0.53742,-3.627638 -1.47792,-4.702494 -0.9405,-0.940498 -2.41842,-1.477926 -4.43378,-1.477926 -0.80614,0 -1.61228,0.134356 -2.28406,0.268714 -0.6718,0.134356 -1.34358,0.40307 -1.881,0.806142 -0.53744,0.40307 -0.9405,0.806142 -1.34358,1.34357 -0.2687,0.537427 -0.53742,1.209212 -0.67178,2.015354 l -5.50864,-0.403072 c 0.13436,-1.074855 0.53744,-2.015354 1.07486,-2.955852 0.53742,-0.9405 1.20922,-1.746642 2.14972,-2.28407 0.9405,-0.671784 2.1497,-1.209212 3.49328,-1.477926 1.34356,-0.403072 3.0902,-0.537428 4.9712,-0.537428 1.74664,0 3.35892,0.134356 4.7025,0.537428 1.34356,0.40307 2.55278,0.940498 3.49328,1.74664 0.9405,0.806142 1.61228,1.746642 2.1497,2.821498 0.53744,1.074855 0.6718,2.418424 0.6718,3.896352 l 0,10.076774 c 0,1.209212 0.13436,2.14971 0.53742,2.687138 0.26872,0.671786 0.9405,0.9405 1.74664,0.9405 0.13436,0 0.26872,0 0.40308,0 0.13436,0 0.40306,0 0.53742,0 0.13436,0 0.40308,0 0.53742,-0.134358 0.13436,0 0.26872,0 0.40308,-0.134356 l 0,3.224568 c -0.67178,0.134356 -1.34356,0.268714 -2.01536,0.268714 -0.67178,0.134356 -1.34356,0.134356 -2.1497,0.134356 -0.9405,0 -1.61228,-0.134356 -2.28408,-0.268714 -0.67178,-0.268714 -1.2092,-0.537428 -1.61228,-0.940498 -0.40306,-0.403072 -0.67178,-0.9405 -0.9405,-1.612284 -0.26872,-0.671786 -0.40306,-1.34357 -0.40306,-2.28407 l -0.13436,0 c -0.9405,1.746642 -2.28408,2.955854 -3.89636,4.03071 -1.61228,0.9405 -3.762,1.477928 -6.31478,1.477928 -1.34356,0 -2.68714,-0.134358 -3.62764,-0.537428 -1.07484,-0.403072 -2.01534,-0.806142 -2.68714,-1.477928 -0.67178,-0.671784 -1.2092,-1.477926 -1.61228,-2.418426 -0.40306,-0.940498 -0.26872,-1.880998 -0.26872,-3.09021 m 5.50864,-0.134356 c 0,1.343568 0.40308,2.284068 1.20922,3.09021 0.80614,0.671784 2.01536,1.074856 3.49328,1.074856 1.34356,0 2.68714,-0.268714 3.62764,-0.671786 1.07486,-0.40307 1.881,-1.074856 2.68714,-1.74664 0.67178,-0.671786 1.2092,-1.477926 1.61228,-2.418426 0.40308,-0.940498 0.53742,-1.74664 0.53742,-2.552782 l 0,-1.746642 -5.10556,0.134358 c -1.07486,0 -2.1497,0.134356 -3.0902,0.268714 -0.9405,0.134356 -1.881,0.40307 -2.55278,0.806142 -0.80616,0.40307 -1.34358,0.940498 -1.74666,1.477926 -0.53742,0.403072 -0.67178,1.209214 -0.67178,2.28407"
         id="path19"
         inkscape:connector-curvature="0"
         style="fill:#0081c7" /><path
         class="st0"
         d="m 161.20659,46.307204 c -2.1497,0 -4.0307,-0.268714 -5.50864,-0.940498 -1.61228,-0.671786 -2.95584,-1.477928 -3.89634,-2.68714 -1.07486,-1.209214 -1.881,-2.552784 -2.41842,-4.165066 -0.53744,-1.612284 -0.80616,-3.358926 -0.80616,-5.37428 0,-2.149712 0.26872,-4.03071 0.80616,-5.642994 0.53742,-1.612283 1.47792,-3.09021 2.55278,-4.165066 1.07484,-1.209212 2.41842,-2.015354 4.0307,-2.68714 1.61228,-0.537428 3.35892,-0.940498 5.37428,-0.940498 1.74664,0 3.22456,0.134356 4.56814,0.537428 1.34356,0.40307 2.41842,0.940498 3.49328,1.612284 0.9405,0.671784 1.74664,1.612284 2.28406,2.552782 0.53744,1.074856 1.07486,2.149712 1.20922,3.358924 l -5.37428,0.403072 c -0.26872,-1.612284 -0.9405,-2.821496 -2.01536,-3.493282 -1.07484,-0.806142 -2.55278,-1.209212 -4.29942,-1.209212 -2.41842,0 -4.16506,0.806142 -5.50864,2.418425 -1.2092,1.612283 -1.88098,3.896353 -1.88098,6.852205 0,3.224568 0.67178,5.508638 2.01534,7.12092 1.34358,1.612284 3.09022,2.418426 5.50864,2.418426 0.80614,0 1.61228,-0.134356 2.41842,-0.268714 0.80614,-0.268714 1.34358,-0.537428 2.01536,-0.940498 0.53742,-0.403072 1.07486,-0.9405 1.34358,-1.612284 0.40306,-0.671784 0.67178,-1.477926 0.80614,-2.284068 l 5.23992,0.537428 c -0.13436,1.209212 -0.53744,2.284068 -1.07486,3.358924 -0.53742,1.074856 -1.34356,2.015354 -2.41842,2.68714 -0.9405,0.806142 -2.14972,1.34357 -3.62764,1.880998 -1.34358,0.40307 -2.95586,0.671784 -4.83686,0.671784"
         id="path21"
         inkscape:connector-curvature="0"
         style="fill:#0081c7" /><path
         class="st0"
         d="m 186.33135,46.03849 c -0.9405,0.134358 -1.881,0.134358 -2.95586,0.134358 -1.881,0 -3.35892,-0.537428 -4.29942,-1.612284 -1.07486,-1.074856 -1.47792,-2.68714 -1.47792,-4.836852 l 0,-15.719766 -3.35892,0 0,-3.62764 3.49328,0 1.74664,-6.046064 3.49328,0 0,6.046064 5.9117,0 0,3.62764 -5.9117,0 0,14.64491 c 0,1.34357 0.2687,2.284068 0.80614,2.821496 0.53742,0.537428 1.34356,0.9405 2.41842,0.9405 0.40308,0 0.9405,0 1.47792,-0.134358 0.53744,-0.134356 1.07486,-0.134356 1.47794,-0.268714 l 0,3.493282 c -1.07486,0.268714 -1.881,0.403072 -2.8215,0.537428"
         id="path23"
         inkscape:connector-curvature="0"
         style="fill:#0081c7" /><path
         class="st1"
         d="m 210.64997,45.769776 c 0,0 0,-0.268714 -0.13436,-0.806142 0,-0.40307 0,-0.940498 -0.13436,-1.477926 0,-0.537428 0,-1.209214 -0.13436,-1.746642 0,-0.537428 0,-1.074856 0,-1.34357 l 0,0 c -1.07486,2.015356 -2.28406,3.493282 -3.89636,4.433782 -1.47792,0.940498 -3.35892,1.477926 -5.50862,1.477926 -1.74664,0 -3.22458,-0.268714 -4.43378,-0.806142 -1.20922,-0.537428 -2.14972,-1.34357 -2.8215,-2.284068 -0.67178,-0.9405 -1.20922,-2.015356 -1.61228,-3.224568 -0.26872,-1.209212 -0.53744,-2.552782 -0.53744,-3.896352 l 0,-15.719768 3.35892,0 0,14.913626 c 0,1.209212 0.13436,2.284068 0.40308,3.358924 0.26872,1.074856 0.67178,1.880998 1.20922,2.68714 0.53742,0.671784 1.34356,1.34357 2.1497,1.74664 0.9405,0.403072 2.01536,0.671786 3.35892,0.671786 1.20922,0 2.28408,-0.268714 3.22458,-0.671786 0.9405,-0.40307 1.881,-1.074856 2.55278,-1.880998 0.67178,-0.806142 1.34356,-1.74664 1.74664,-2.821496 0.40308,-1.074856 0.67178,-2.284068 0.67178,-3.493282 l 0,-14.510554 3.35892,0 0,19.750476 c 0,0.537428 0,1.209214 0,1.746642 0,0.671784 0,1.209212 0,1.74664 0,0.537428 0,1.074856 0,1.477928 0,0.40307 0,0.671784 0,0.671784 l -2.82148,0 0,0 z"
         id="path25"
         inkscape:connector-curvature="0"
         style="fill:#97be0d" /><path
         class="st1"
         d="m 238.46185,38.783214 c 0,1.209212 -0.2687,2.284068 -0.67178,3.09021 -0.40306,0.940498 -1.2092,1.74664 -2.01536,2.418426 -0.9405,0.671784 -2.01534,1.209212 -3.22456,1.477926 -1.34356,0.403072 -2.8215,0.537428 -4.43378,0.537428 -1.47792,0 -2.8215,-0.134356 -4.0307,-0.268714 -1.20922,-0.268714 -2.28408,-0.537428 -3.22458,-1.074856 -0.9405,-0.537428 -1.61228,-1.209212 -2.28406,-2.015354 -0.67178,-0.806142 -1.07486,-1.880998 -1.34358,-3.090212 l 3.22458,-0.671784 c 0.2687,0.940498 0.53742,1.74664 0.9405,2.418426 0.40306,0.671784 0.9405,1.074856 1.61228,1.477926 0.67178,0.403072 1.34356,0.537428 2.28406,0.671786 0.80614,0.134356 1.74664,0.134356 2.68714,0.134356 1.07486,0 2.01536,-0.134356 2.8215,-0.268714 0.9405,-0.134356 1.61228,-0.537428 2.28406,-0.806142 0.6718,-0.40307 1.20922,-0.940498 1.47794,-1.477926 0.40306,-0.537428 0.53742,-1.34357 0.53742,-2.149712 0,-0.940498 -0.26872,-1.612284 -0.67178,-2.149712 -0.40308,-0.537428 -1.07486,-0.940498 -1.881,-1.34357 -0.80614,-0.40307 -1.61228,-0.671784 -2.68714,-0.940498 -1.07486,-0.268714 -2.01536,-0.537428 -3.22456,-0.671786 -1.07486,-0.268714 -2.14972,-0.537428 -3.09022,-0.806142 -1.07486,-0.268714 -1.881,-0.671784 -2.68714,-1.209212 -0.80614,-0.537428 -1.47792,-1.209212 -2.01536,-1.880998 -0.53742,-0.806142 -0.80614,-1.74664 -0.80614,-2.955854 0,-2.14971 0.80614,-3.896352 2.55278,-5.239922 1.6123,-1.209212 4.16508,-1.880998 7.38964,-1.880998 1.20922,0 2.41842,0.134358 3.49328,0.403072 1.07486,0.268714 2.01536,0.671784 2.95586,1.074856 0.80614,0.537428 1.61228,1.209212 2.14972,2.015354 0.53742,0.806142 0.94048,1.746642 1.2092,2.821496 l -3.0902,0.403072 c -0.13436,-0.806142 -0.40308,-1.477926 -0.80614,-2.015354 -0.40308,-0.537428 -0.9405,-0.9405 -1.47794,-1.34357 -0.53742,-0.268714 -1.2092,-0.537428 -2.01536,-0.671786 -0.67178,-0.134356 -1.47792,-0.268714 -2.28406,-0.268714 -2.14972,0 -3.89636,0.403072 -4.9712,1.074856 -1.07486,0.806142 -1.6123,1.746642 -1.6123,3.09021 0,0.806142 0.13436,1.477928 0.53744,1.880998 0.40306,0.537428 0.9405,0.9405 1.61228,1.209214 0.67178,0.40307 1.47792,0.671784 2.41842,0.806142 0.9405,0.268714 2.01536,0.537428 3.09022,0.806142 1.07486,0.268714 2.28406,0.537428 3.35892,0.806142 1.07486,0.268714 2.14972,0.671784 2.95586,1.209212 0.9405,0.537428 1.61228,1.209212 2.1497,2.015354 0.53744,1.074856 0.80614,2.149712 0.80614,3.358926"
         id="path27"
         inkscape:connector-curvature="0"
         style="fill:#97be0d" /></g></g></svg>