<?xml version="1.0" encoding="UTF-8" standalone="no"?>
<!-- Generator: Adobe Illustrator 19.2.1, SVG Export Plug-In . SVG Version: 6.00 Build 0)  -->

<svg
   xmlns:dc="http://purl.org/dc/elements/1.1/"
   xmlns:cc="http://creativecommons.org/ns#"
   xmlns:rdf="http://www.w3.org/1999/02/22-rdf-syntax-ns#"
   xmlns:svg="http://www.w3.org/2000/svg"
   xmlns="http://www.w3.org/2000/svg"
   xmlns:sodipodi="http://sodipodi.sourceforge.net/DTD/sodipodi-0.dtd"
   xmlns:inkscape="http://www.inkscape.org/namespaces/inkscape"
   version="1.1"
   id="Ebene_1"
   x="0px"
   y="0px"
   viewBox="0 0 65 62.999997"
   xml:space="preserve"
   inkscape:version="0.91 r13725"
   sodipodi:docname="contractus-logo-icon.svg"
   width="65"
   height="63"><metadata
     id="metadata3510"><rdf:RDF><cc:Work
         rdf:about=""><dc:format>image/svg+xml</dc:format><dc:type
           rdf:resource="http://purl.org/dc/dcmitype/StillImage" /><dc:title></dc:title></cc:Work></rdf:RDF></metadata><defs
     id="defs3508" /><sodipodi:namedview
     pagecolor="#ffffff"
     bordercolor="#666666"
     borderopacity="1"
     objecttolerance="10"
     gridtolerance="10"
     guidetolerance="10"
     inkscape:pageopacity="0"
     inkscape:pageshadow="2"
     inkscape:window-width="1920"
     inkscape:window-height="1025"
     id="namedview3506"
     showgrid="false"
     showguides="false"
     inkscape:zoom="6.7440841"
     inkscape:cx="50.14069"
     inkscape:cy="25.474026"
     inkscape:window-x="1920"
     inkscape:window-y="0"
     inkscape:window-maximized="1"
     inkscape:current-layer="g3470"><inkscape:grid
       type="xygrid"
       id="grid3531" /></sodipodi:namedview><style
     type="text/css"
     id="style3468">
	.st0{fill:#0081C7;}
	.st1{fill:#97BE0D;}
	.st2{fill:#58585A;}
	.st3{fill:#739513;}
	.st4{fill:#004F7D;}
	.st5{fill:#B1B2B4;}
</style><g
     id="g3470"
     transform="translate(0,-2.3000153)"><g
       transform="translate(-0.83513545,0.82748875)"
       id="g3472"><path
         inkscape:connector-curvature="0"
         class="st2"
         d="m 45.5,24.6 c 1.7,-0.9 4.4,-1.2 7.2,2.9 2.8,4.1 5.8,12.5 6.8,18.3 1,5.8 0.1,8.9 -2.5,10.2 -2.6,1.3 -6.9,0.7 -13.4,-3.6 -6.2,-3.9 -11.5,-7.5 -19.1,-12.3 0.6,-0.4 1.3,-0.8 1.9,-1.2 8.2,4.4 13.7,7.3 18.5,9.9 6.3,3.3 8.2,2 9,-1.5 0.8,-3.5 0.4,-9.1 -1,-14 -1.4,-4.9 -3.7,-9.2 -7.4,-6.9 0,-0.3 0,-0.5 0,-0.8 0,-0.1 0,-0.3 0,-0.4 0,-0.1 0,-0.1 0,-0.2 0,0 0,-0.1 0,-0.1 0,0 0,-0.1 0,-0.1 0,0 0,-0.1 0,-0.2 0,0 0,0 0,0"
         id="path3494"
         style="fill:#58585a" /><path
         inkscape:connector-curvature="0"
         class="st3"
         d="m 20,37.3 c -1.7,-1 -3.2,-3.2 -1.1,-7.7 2.1,-4.5 7.9,-11.3 12.4,-15 4.5,-3.8 7.7,-4.6 10.1,-2.9 2.4,1.6 4.1,5.7 3.6,13.4 -0.2,7.3 -0.7,13.8 -1.1,22.7 -0.6,-0.4 -1.3,-0.7 -1.9,-1.1 -0.3,-9.3 -0.5,-15.5 -0.6,-21 -0.2,-7.1 -2.4,-8.1 -5.8,-7.1 -3.4,1.1 -8.1,4.2 -11.7,7.9 -3.6,3.6 -6.2,7.8 -2.3,9.9 -0.2,0.1 -0.5,0.2 -0.7,0.4 -0.1,0.1 -0.2,0.1 -0.3,0.2 -0.1,0 -0.1,0.1 -0.2,0.1 0,0 -0.1,0 -0.1,0.1 0,0 -0.1,0 -0.1,0 -0.1,0 -0.1,0 -0.2,0.1 0,0 0,0 0,0"
         id="path3496"
         style="fill:#739513" /><path
         inkscape:connector-curvature="0"
         class="st4"
         d="m 43.7,53.1 c -0.1,2 -1.2,4.4 -6.1,4.8 -4.9,0.4 -13.7,-1.2 -19.2,-3.2 -5.5,-2 -7.8,-4.4 -7.6,-7.3 0.2,-2.9 2.9,-6.4 9.8,-9.8 6.5,-3.5 12.3,-6.3 20.2,-10.4 0,0.7 0,1.5 0.1,2.2 -7.9,4.9 -13.2,8.2 -17.8,11 -6,3.8 -5.8,6.1 -3.2,8.6 2.6,2.4 7.7,4.9 12.6,6.2 5,1.3 9.8,1.4 9.7,-3 0.2,0.1 0.5,0.3 0.7,0.4 0.1,0.1 0.2,0.1 0.3,0.2 0.1,0 0.1,0.1 0.2,0.1 0,0 0.1,0.1 0.1,0.1 0,0 0.1,0 0.1,0.1 0,-0.1 0,-0.1 0.1,0 0,0 0,0 0,0"
         id="path3498"
         style="fill:#004f7d" /><path
         inkscape:connector-curvature="0"
         class="st0"
         d="m 43.7,53.1 c 0,0 -0.1,-0.1 -0.1,-0.1 0,0 -0.1,0 -0.1,-0.1 0,0 -0.1,-0.1 -0.1,-0.1 -0.1,0 -0.1,-0.1 -0.2,-0.1 0,0 -0.1,-0.1 -0.1,-0.1 0.1,2 -0.8,2.9 -2.1,3.5 -1.3,0.6 -3,1 -5.4,0.9 -2.4,-0.1 -5.3,-0.8 -8.2,-1.7 -2.8,-0.9 -5.5,-1.9 -7.6,-3.1 -2.1,-1.2 -3.7,-2.4 -4.4,-3.7 -0.7,-1.3 -0.5,-2.7 0.8,-4.1 1.2,-1.3 3.3,-2.7 24.7,-16 0,-0.4 0,-0.8 0,-1.2 -7.9,4.2 -13.7,7 -20.2,10.4 -6.9,3.5 -9.6,6.9 -9.8,9.8 -0.2,2.9 2.1,5.3 7.6,7.3 5.5,2 14.3,3.6 19.2,3.2 4.8,-0.4 6,-2.8 6,-4.8 0,0 0,0 0,0 M 4.7,45 C 2.4,45.2 0.9,46.9 1,49.2 1.2,51.5 2.9,53.1 5.2,52.9 7.5,52.7 9.1,51 8.9,48.7 8.8,46.4 7,44.8 4.7,45"
         id="path3500"
         style="fill:#0081c7" /><path
         inkscape:connector-curvature="0"
         class="st1"
         d="M 41.4,11.7 C 39,10.1 35.8,10.8 31.3,14.6 26.8,18.4 21,25.2 18.9,29.6 c -2.1,4.5 -0.6,6.6 1.1,7.7 0,0 0,0 0.1,0 0,0 0.1,0 0.1,-0.1 0,0 0.1,0 0.1,0 0,0 0.1,0 0.1,-0.1 0.1,0 0.1,-0.1 0.2,-0.1 0,0 0.1,0 0.1,-0.1 -1.8,-0.9 -2.1,-2.1 -2,-3.5 0.1,-1.4 0.6,-3.1 2,-5.1 1.3,-2 3.4,-4.2 5.5,-6.2 2.2,-2 4.4,-3.8 6.5,-5.1 2.1,-1.3 4,-2 5.5,-2 1.5,0.1 2.6,0.9 3.2,2.8 0.5,1.7 0.7,4.2 1.5,29.4 0.4,0.2 0.7,0.4 1.1,0.6 0.4,-8.9 0.8,-15.4 1.1,-22.7 0.4,-7.8 -1.3,-11.8 -3.7,-13.4 m 3.3,-9.5 c -2.1,-1 -4.3,-0.3 -5.3,1.8 -1,2.1 -0.3,4.3 1.8,5.3 2.1,1 4.3,0.3 5.3,-1.8 1,-2 0.3,-4.2 -1.8,-5.3"
         id="path3502"
         style="fill:#97be0d" /><path
         inkscape:connector-curvature="0"
         class="st5"
         d="m 59.5,45.8 c -1,-5.8 -4,-14.2 -6.8,-18.3 -2.8,-4.1 -5.5,-3.8 -7.2,-2.9 0,0 0,0 0,0.1 0,0.1 0,0.1 0,0.2 0,0 0,0.1 0,0.1 0,0 0,0.1 0,0.1 0,0.1 0,0.1 0,0.2 0,0.1 0,0.1 0,0.2 1.7,-1.1 2.9,-0.8 4.1,0 1.2,0.8 2.4,2.1 3.4,4.2 1.1,2.1 2,5 2.6,7.9 0.7,2.9 1.1,5.7 1.1,8.2 0.1,2.4 -0.2,4.4 -1,5.7 -0.8,1.3 -2.1,1.8 -4,1.4 -1.7,-0.4 -4,-1.5 -26.2,-13.4 -0.4,0.2 -0.7,0.4 -1,0.6 7.6,4.8 12.9,8.4 19.1,12.3 6.4,4.3 10.8,4.9 13.4,3.6 2.6,-1.3 3.5,-4.5 2.5,-10.2 m 5.1,12.3 C 63.3,56.2 61,55.7 59.1,57 c -1.9,1.3 -2.4,3.6 -1.1,5.5 1.3,1.9 3.6,2.4 5.5,1.1 1.9,-1.3 2.4,-3.6 1.1,-5.5"
         id="path3504"
         style="fill:#b1b2b4" /></g></g></svg>